<svg width="53" height="52" viewBox="0 0 53 52" fill="none" xmlns="http://www.w3.org/2000/svg">
<path d="M10.0038 0.302734H43.6167C48.7128 0.302734 52.8331 4.42302 52.8331 9.51913V41.8309C52.8331 46.927 48.7128 51.0473 43.6167 51.0473H10.0038C4.90764 51.0473 0.787354 46.927 0.787354 41.8309V9.51913C0.787354 4.42302 4.90764 0.302734 10.0038 0.302734Z" fill="#00005C"/>
<path d="M21.693 30.6626H13.626L11.9778 35.7805C11.9345 35.9757 11.7609 36.1058 11.5658 36.0841H7.48886C7.25032 36.0841 7.18526 35.954 7.25032 35.6937L14.2331 15.6779C14.2982 15.461 14.3632 15.2658 14.45 15.0056C14.5368 14.5502 14.5801 14.0731 14.5801 13.596C14.5584 13.4875 14.6452 13.3791 14.7536 13.3574H14.8186H20.3702C20.522 13.3574 20.6304 13.4225 20.6521 13.531L28.5674 35.6504C28.6324 35.8889 28.5674 35.9973 28.3505 35.9973H23.8182C23.6664 36.019 23.5146 35.9106 23.4712 35.7588L21.693 30.5542V30.6626ZM14.8837 26.3472H20.3919C20.2618 25.8918 20.0882 25.3497 19.8931 24.7859C19.6979 24.2003 19.5027 23.5714 19.3076 22.9208C19.0908 22.2486 18.8956 21.5981 18.6787 20.9258C18.4618 20.2535 18.2666 19.6246 18.0932 18.9958C17.9197 18.3885 17.7679 17.8247 17.6161 17.3043H17.5727C17.3776 18.2367 17.139 19.1692 16.8354 20.1017C16.5101 21.1427 16.1848 22.2269 15.8379 23.3112C15.556 24.4171 15.209 25.4364 14.8837 26.3472Z" fill="#9A99FF"/>
<path d="M41.3408 28.7117H34.4664C34.5531 29.384 34.77 30.0563 35.1386 30.6418C35.529 31.2273 36.0711 31.6827 36.7217 31.9429C37.5892 32.3115 38.5433 32.5067 39.4975 32.485C40.2565 32.4634 41.0155 32.3983 41.7528 32.2465C42.425 32.1597 43.0756 31.9863 43.6828 31.7477C43.7912 31.661 43.8564 31.7043 43.8564 31.9212V35.2391C43.8564 35.3259 43.8347 35.4126 43.8129 35.4993C43.7696 35.5644 43.7262 35.6077 43.6611 35.6512C42.9672 35.9547 42.2516 36.1716 41.4926 36.3017C40.4733 36.4969 39.4541 36.5836 38.4132 36.562C36.7651 36.562 35.3772 36.3017 34.2495 35.8029C33.1869 35.3475 32.2545 34.6319 31.5171 33.7428C30.8232 32.8971 30.3244 31.9429 30.0208 30.902C29.7173 29.8827 29.5654 28.8202 29.5654 27.7358C29.5654 26.5648 29.7389 25.4155 30.1076 24.2878C30.4545 23.2035 30.9967 22.206 31.734 21.3169C32.4497 20.4494 33.3387 19.7555 34.3579 19.2568C35.3772 18.7579 36.5916 18.5845 37.9795 18.5845C39.1288 18.5628 40.2781 18.7797 41.3408 19.2568C42.2299 19.6471 43.0105 20.2326 43.6178 20.9916C44.1816 21.7289 44.637 22.553 44.9189 23.4638C45.2009 24.3312 45.331 25.2203 45.331 26.1094C45.331 26.6299 45.3093 27.0853 45.2875 27.4973C45.2442 27.9094 45.2225 28.2129 45.2009 28.4081C45.1791 28.5599 45.049 28.6901 44.8972 28.6901C44.7671 28.6901 44.5286 28.7117 44.1817 28.7334C43.8347 28.7767 43.4226 28.7985 42.9239 28.7985C42.425 28.7985 41.9046 28.7117 41.3408 28.7117ZM34.4664 25.5456H39.0421C39.6059 25.5456 40.0179 25.5456 40.2781 25.5239C40.4517 25.5023 40.6251 25.4588 40.777 25.3504V25.1335C40.777 24.8517 40.7335 24.5915 40.6469 24.3312C40.2565 23.1168 39.1071 22.2927 37.8277 22.3361C36.6349 22.271 35.5073 22.9 34.9435 23.9842C34.6832 24.483 34.5315 25.0034 34.4664 25.5456Z" fill="#9A99FF"/>
</svg>
