<svg width="53" height="52" viewBox="0 0 53 52" fill="none" xmlns="http://www.w3.org/2000/svg">
<path d="M10.0038 0.580078H43.6167C48.7128 0.580078 52.8331 4.70037 52.8331 9.79648V42.1083C52.8331 47.2043 48.7128 51.3246 43.6167 51.3246H10.0038C4.90764 51.3246 0.787354 47.2043 0.787354 42.1083V9.79648C0.787354 4.70037 4.90764 0.580078 10.0038 0.580078Z" fill="#330000"/>
<path d="M25.9413 30.9394H17.8742L16.2262 36.0355C16.1827 36.2307 16.0093 36.3608 15.8141 36.3391H11.7372C11.4986 36.3391 11.4336 36.209 11.4986 35.9488L18.4814 15.8461C18.5465 15.6293 18.6116 15.3907 18.6983 15.1305C18.785 14.6751 18.8284 14.1981 18.8284 13.7209C18.8067 13.6125 18.8935 13.504 19.0019 13.4824H19.067H24.6185C24.792 13.4824 24.8788 13.5475 24.9004 13.6559L32.8157 35.9922C32.8808 36.2307 32.8157 36.3391 32.5988 36.3391H28.0666C27.9147 36.3608 27.7629 36.2524 27.7196 36.1006L25.9413 30.9394ZM19.132 26.5372H24.6402C24.51 26.0818 24.3366 25.5396 24.1414 24.9758C23.9462 24.3903 23.7511 23.7615 23.5559 23.1109C23.339 22.4386 23.1438 21.788 22.927 21.1157C22.7102 20.4435 22.515 19.8146 22.3415 19.1857C22.168 18.5785 22.0162 18.0147 21.8644 17.4942H21.8211C21.6259 18.4268 21.3873 19.3592 21.0837 20.2917C20.7584 21.3326 20.4332 22.4169 20.0862 23.5012C19.7826 24.6072 19.4573 25.6264 19.132 26.5372Z" fill="#FF9A00"/>
<path d="M37.653 17.2771C36.9373 17.2988 36.2433 17.0168 35.7229 16.5181C35.2241 15.9759 34.9639 15.2603 34.9856 14.523C34.9639 13.7857 35.2459 13.0917 35.7663 12.593C36.2868 12.0942 36.9807 11.834 37.6963 11.834C38.5421 11.834 39.1926 12.0942 39.6697 12.593C40.1468 13.1134 40.407 13.8073 40.3854 14.523C40.407 15.2603 40.1468 15.9759 39.6263 16.5181C39.1276 17.0386 38.3902 17.3204 37.653 17.2771ZM35.2241 36.1003V19.4022C35.2241 19.1854 35.3109 19.0987 35.5061 19.0987H39.7999C39.995 19.0987 40.0817 19.2071 40.0817 19.4022V36.1003C40.0817 36.3388 39.995 36.4472 39.7999 36.4472H35.5494C35.3325 36.4472 35.2241 36.3172 35.2241 36.1003Z" fill="#FF9A00"/>
</svg>
