<svg width="53" height="52" viewBox="0 0 53 52" fill="none" xmlns="http://www.w3.org/2000/svg">
<path d="M10.004 0.449219H43.6167C48.7128 0.449219 52.8331 4.56949 52.8331 9.66557V41.9772C52.8331 47.0733 48.7128 51.1936 43.6167 51.1936H10.004C4.90787 51.1936 0.787598 47.0733 0.787598 41.9772V9.66557C0.787598 4.56949 4.90787 0.449219 10.004 0.449219Z" fill="#61A845"/>
<path d="M24.3613 39.008L25.0668 41.8298H28.4462L29.1046 38.9609L24.3613 39.008Z" fill="#BAFD9F"/>
<path d="M26.1218 37.0127L26.2494 37.4091L26.33 37.5838H27.1497L27.2438 37.5368L27.3647 37.2613C27.8686 35.9646 29.1921 30.4353 29.4609 29.0244C30.3096 25.216 30.6574 21.3131 30.4955 17.4147C30.4118 15.8715 30.097 14.3496 29.5617 12.8998C29.1384 11.8383 28.5069 10.6222 27.3916 10.1519C26.2763 9.68165 25.0065 10.8843 24.4892 11.8921C21.7144 17.2669 23.4881 26.4579 24.7848 31.9201L25.2215 33.7946C25.5104 34.883 25.8329 35.8437 26.1285 37.0396L26.1218 37.0127Z" fill="#BAFD9F"/>
<path d="M25.779 37.2812L25.2953 36.8983C19.5375 31.5234 11.6432 13.3094 24.086 9.95686C24.3735 9.86013 24.6764 9.81687 24.9795 9.8292C15.204 14.0552 21.8016 30.4619 25.779 37.2812Z" fill="#BAFD9F"/>
<path d="M27.8618 37.281L28.3456 36.8846C34.1034 31.5098 41.9977 13.2957 29.5549 9.94319C29.2673 9.84646 28.9645 9.8032 28.6613 9.81553C38.4368 14.0549 31.8392 30.4617 27.8618 37.281Z" fill="#BAFD9F"/>
<path d="M20.0683 11.2598C18.8386 11.8572 17.7699 12.7406 16.9517 13.8358C16.1335 14.9311 15.5895 16.2064 15.3653 17.5551L15.2578 18.6972V19.6109L15.3855 20.6254L15.4594 21.1092C16.4201 26.4168 20.8342 33.3705 24.7108 37.059C19.336 29.9038 11.2737 18.583 20.075 11.2598H20.0683Z" fill="#BAFD9F"/>
<path d="M33.5659 11.2598C34.7956 11.8572 35.8642 12.7406 36.6825 13.8358C37.5007 14.9311 38.0447 16.2064 38.2689 17.5551L38.3629 18.6972V19.6109L38.2353 20.6254L38.1614 21.1092C37.2006 26.4168 32.7865 33.3705 28.9099 37.059C34.2848 29.9038 42.347 18.583 33.5457 11.2598H33.5659Z" fill="#BAFD9F"/>
</svg>
