<svg width="53" height="51" viewBox="0 0 53 51" fill="none" xmlns="http://www.w3.org/2000/svg">
<path d="M10.0038 0.0253906H43.6167C48.7128 0.0253906 52.8331 4.14568 52.8331 9.24179V41.5536C52.8331 46.6497 48.7128 50.77 43.6167 50.77H10.0038C4.90764 50.77 0.787354 46.6497 0.787354 41.5536V9.24179C0.787354 4.14568 4.90764 0.0253906 10.0038 0.0253906Z" fill="#44454A"/>
<mask id="mask0_6_435" style="mask-type:luminance" maskUnits="userSpaceOnUse" x="17" y="10" width="21" height="31">
<path d="M17.2161 10.127H37.4987V40.8792H17.2161V10.127Z" fill="white"/>
</mask>
<g mask="url(#mask0_6_435)">
<path d="M22.0139 40.6679C24.6613 40.6679 26.8101 38.5218 26.8101 35.8772V31.0859H22.0139C19.3666 31.0859 17.2178 33.2325 17.2178 35.8772C17.2178 38.5218 19.3666 40.6679 22.0139 40.6679Z" fill="#0ACF83"/>
<path d="M17.2178 25.3972C17.2178 22.753 19.3666 20.6064 22.0139 20.6064H26.8101V30.1884H22.0139C19.3666 30.1884 17.2178 28.0419 17.2178 25.3972Z" fill="#A259FF"/>
<path d="M17.218 14.9182C17.218 12.2735 19.3668 10.127 22.0142 10.127H26.8103V19.7094H22.0142C19.3668 19.7094 17.218 17.5628 17.218 14.9182Z" fill="#F24E1E"/>
<path d="M26.8103 10.127H31.6065C34.2538 10.127 36.4022 12.274 36.4022 14.9182C36.4022 17.5628 34.2538 19.7094 31.6065 19.7094H26.8103V10.127Z" fill="#FF7262"/>
<path d="M37.2994 25.3972C37.2994 28.0419 35.151 30.1884 32.5037 30.1884C29.8563 30.1884 27.7075 28.0419 27.7075 25.3972C27.7075 22.7525 29.8563 20.6064 32.5037 20.6064C35.151 20.6064 37.2994 22.7525 37.2994 25.3972Z" fill="#1ABCFE"/>
</g>
</svg>
