<svg width="53" height="52" viewBox="0 0 53 52" fill="none" xmlns="http://www.w3.org/2000/svg">
<path d="M10.0038 0.857422H43.6167C48.7128 0.857422 52.8331 4.97771 52.8331 10.0738V42.3856C52.8331 47.4817 48.7128 51.602 43.6167 51.602H10.0038C4.90764 51.602 0.787354 47.4817 0.787354 42.3856V10.0738C0.787354 4.97771 4.90764 0.857422 10.0038 0.857422Z" fill="#0A1460"/>
<path d="M12.4983 36.444V14.1294C12.4983 13.9775 12.5633 13.8908 12.7151 13.8908C13.0838 13.8908 13.4307 13.8909 13.9295 13.8691C14.45 13.8474 14.9921 13.8474 15.5776 13.8258C16.1631 13.8041 16.7921 13.8041 17.4643 13.7824C18.1365 13.7607 18.7871 13.7607 19.4377 13.7607C21.2159 13.7607 22.6905 13.9775 23.9049 14.4329C24.9893 14.8016 25.9867 15.4088 26.8109 16.2112C27.5048 16.9051 28.047 17.7509 28.3939 18.6834C28.7191 19.5942 28.8927 20.5266 28.8927 21.5025C28.8927 23.3675 28.4589 24.9071 27.5916 26.1215C26.7241 27.336 25.5097 28.2468 24.1001 28.7672C22.6255 29.3093 20.9991 29.5045 19.2208 29.5045C18.7003 29.5045 18.3534 29.5045 18.1365 29.4829C17.9197 29.4611 17.6161 29.4611 17.204 29.4611V36.4223C17.2257 36.5741 17.1173 36.7042 16.9655 36.7258C16.9438 36.7258 16.9222 36.7258 16.8787 36.7258H12.7585C12.585 36.7258 12.4983 36.6391 12.4983 36.444ZM17.2257 18.0761V25.3625C17.5293 25.3843 17.8113 25.4059 18.0715 25.4059H19.2208C20.0665 25.4059 20.9123 25.2758 21.7147 25.0155C22.4086 24.8204 23.0158 24.4084 23.493 23.8662C23.9484 23.3241 24.1651 22.5868 24.1651 21.6326C24.1869 20.9604 24.0134 20.2881 23.6664 19.7026C23.2978 19.1388 22.7773 18.705 22.1484 18.4665C21.3461 18.1412 20.4786 18.0111 19.5895 18.0328C19.0256 18.0328 18.5269 18.0328 18.1148 18.0545C17.6811 18.0328 17.3776 18.0545 17.2257 18.0761Z" fill="#5FB7FF"/>
<path d="M42.4235 24.0387C41.773 23.6917 41.0789 23.4532 40.3417 23.3014C39.5393 23.1279 38.7369 23.0194 37.9129 23.0194C37.4792 22.9978 37.0238 23.0628 36.6117 23.1712C36.3298 23.2363 36.0913 23.3881 35.9395 23.6049C35.831 23.7785 35.766 23.9953 35.766 24.1904C35.766 24.3856 35.8528 24.5808 35.9829 24.7543C36.178 24.9928 36.4383 25.188 36.7201 25.3398C37.219 25.6001 37.7394 25.8386 38.2599 26.0555C39.4309 26.4458 40.5585 26.9879 41.5994 27.6385C42.315 28.0939 42.9005 28.7011 43.3126 29.4384C43.6596 30.1324 43.8331 30.8913 43.8114 31.672C43.8331 32.6913 43.5295 33.7105 42.9656 34.5562C42.3585 35.4237 41.5127 36.0959 40.5369 36.4862C39.4742 36.9416 38.1731 37.1802 36.6117 37.1802C35.6142 37.1802 34.6384 37.0935 33.6625 36.8983C32.9035 36.7682 32.1445 36.5297 31.4506 36.2044C31.2988 36.1176 31.1904 35.9658 31.212 35.7923V32.019C31.212 31.954 31.2337 31.8672 31.2988 31.8238C31.3638 31.7805 31.4289 31.8021 31.4939 31.8456C32.3397 32.3443 33.2288 32.6913 34.183 32.9081C35.007 33.125 35.8745 33.2334 36.7418 33.2334C37.5659 33.2334 38.1514 33.125 38.5417 32.9298C38.8887 32.778 39.1272 32.4094 39.1272 32.019C39.1272 31.7154 38.9538 31.4335 38.6068 31.1516C38.2599 30.8697 37.5442 30.5444 36.4816 30.1324C35.3756 29.742 34.3564 29.2216 33.4023 28.571C32.73 28.0939 32.1662 27.465 31.7542 26.7277C31.4072 26.0338 31.2337 25.2748 31.2554 24.5157C31.2554 23.5833 31.5156 22.6941 31.9927 21.8918C32.5348 21.0244 33.3372 20.3304 34.2697 19.8967C35.2889 19.3762 36.5684 19.1377 38.108 19.1377C38.9971 19.1377 39.9079 19.2028 40.7971 19.3329C41.4477 19.4196 42.0765 19.5931 42.662 19.8316C42.7488 19.8533 42.8355 19.9401 42.8789 20.0268C42.9005 20.1136 42.9223 20.2003 42.9223 20.287V23.8218C42.9223 23.9086 42.8789 23.9953 42.8139 24.0387C42.6187 24.082 42.5102 24.082 42.4235 24.0387Z" fill="#5FB7FF"/>
</svg>
