<svg width="115" height="115" viewBox="0 0 115 115" fill="none" xmlns="http://www.w3.org/2000/svg">
<circle cx="57.185" cy="57.185" r="57.185" fill="#B57AD2"/>
<g opacity="0.1">
<g style="mix-blend-mode:multiply">
<path d="M41.1934 47.3195C39.1448 46.5909 37.6276 46.2694 36.5861 46.3123C35.3004 46.3637 34.0917 47.1437 32.986 48.6266C31.6402 50.4267 30.8559 52.7925 30.9116 55.5397C30.9974 59.7742 33.0974 64.3429 34.7003 68.2344C36.8904 73.566 38.9476 79.2791 39.4405 85.0093C39.8734 90.0623 40.1734 95.6682 37.649 100.361C36.0375 103.357 33.8346 103.794 30.6373 102.02C27.6887 100.387 25.4857 98.5997 23.7457 97.0268C22.7214 95.6296 21.0542 93.2853 18.9284 89.9166C17.7626 88.0694 16.194 85.5579 14.4325 82.3306C17.0469 84.0535 18.7784 85.0693 19.5884 85.3436C22.7556 86.4193 23.7928 84.8464 22.8457 80.5177C22.1556 77.3762 20.9513 74.3246 19.1212 71.5603C16.3611 68.0116 13.6439 64.4157 11.0295 60.7599C6.3751 54.7897 4.90934 46.9766 7.2837 39.8149C9.7395 32.409 15.4054 26.023 20.7584 20.6314C24.95 16.4099 29.2916 11.9654 34.6875 9.35104C37.3876 8.04386 40.3619 7.52955 43.9492 8.20672C42.0463 21.21 41.3134 34.1833 41.1934 47.3195Z" fill="#231F20"/>
<path d="M95.5982 21.2742C104.676 31.2474 108.233 44.0449 108.207 56.9754C108.181 70.6001 102.494 83.192 94.0424 94.0738C90.678 96.9367 88.8308 98.2182 84.8878 100.395C88.7751 92.4494 90.9566 84.0834 92.5595 75.4303C86.5422 86.0078 80.1734 96.3667 73.8818 106.781C71.996 96.8853 67.7144 87.4821 63.7071 78.3147C63.2828 87.9921 62.7214 97.6482 61.9714 107.304C58.0669 107.673 53.8625 107.604 49.9752 107.094C48.0295 90.3493 47.0223 73.5274 46.5637 56.6796C46.1137 40.2477 46.1651 23.8157 47.4166 7.42229C53.9354 6.64655 59.8884 6.63798 66.4072 7.39657C68.1344 12.1539 69.9259 16.9412 71.7431 21.6171C74.0918 27.6515 76.8219 33.656 79.4534 39.6348C81.0606 34.3332 82.2477 28.7787 82.7706 23.2628C83.0063 20.4942 83.0492 16.5812 82.2006 12.3167C87.0651 14.6397 91.5909 17.6569 95.5939 21.2742H95.5982Z" fill="#231F20"/>
</g>
</g>
<path d="M24.4396 63.9435C20.7676 63.9435 17.9236 61.0275 17.9236 57.4275C17.9236 53.8275 20.7676 50.9115 24.4396 50.9115C28.1116 50.9115 30.9556 53.8275 30.9556 57.4275C30.9556 61.0275 28.1116 63.9435 24.4396 63.9435ZM24.4396 62.7195C27.4276 62.7195 29.6956 60.3615 29.6956 57.4275C29.6956 54.4935 27.4276 52.1355 24.4396 52.1355C21.4516 52.1355 19.1836 54.4935 19.1836 57.4275C19.1836 60.3615 21.4516 62.7195 24.4396 62.7195ZM36.9264 63.9435C34.3884 63.9435 32.3904 62.0895 32.3904 59.3175C32.3904 56.4195 32.9304 54.9435 35.8464 53.5395C37.7184 52.6395 39.2484 52.3875 39.4644 50.8575L40.4004 51.3975C40.1124 53.1975 38.2404 53.7015 36.4764 54.4755C34.8024 55.1955 34.1184 55.8615 33.7764 57.1215C34.6764 55.9335 36.1524 55.5375 37.1784 55.5375C39.5724 55.5375 41.3364 57.2835 41.3364 59.7315C41.3364 62.1615 39.4644 63.9435 36.9264 63.9435ZM36.9264 62.7555C38.8164 62.7555 40.1484 61.4775 40.1484 59.7315C40.1484 57.9675 38.9244 56.6895 37.0164 56.6895C35.4504 56.6895 33.6504 57.7335 33.6504 59.6235C33.6504 61.4595 35.0904 62.7555 36.9264 62.7555ZM47.3373 63.9435C44.6193 63.9435 42.6033 61.8915 42.6033 59.2275C42.6033 56.5635 44.6193 54.5115 47.3373 54.5115C49.1193 54.5115 50.6313 55.4475 51.2793 56.8695L50.3073 57.4275C49.8213 56.3655 48.6873 55.6635 47.3373 55.6635C45.3393 55.6635 43.7913 57.2295 43.7913 59.2275C43.7913 61.2255 45.3393 62.7915 47.3373 62.7915C48.7053 62.7915 49.8033 62.0715 50.3793 61.0275L51.3693 61.6035C50.6313 63.0255 49.1013 63.9435 47.3373 63.9435ZM59.2034 54.7275H60.4634L56.6114 64.5555C55.9274 66.2835 54.5954 67.4535 52.9754 67.3275V66.2115C54.1454 66.3375 54.9554 65.5095 55.4414 64.3395L55.6754 63.7815L51.6434 54.7275H52.9034L56.2874 62.2695L59.2034 54.7275ZM68.9142 62.5755H70.1742V66.1395H68.9862V63.7275H61.6422V66.1395H60.4542V62.5755H61.5522C62.1282 61.8195 62.4702 60.9375 62.4702 59.1735V54.7275H68.9142V62.5755ZM62.9922 62.5755H67.7262V55.8795H63.6582V59.1735C63.6582 60.6495 63.4242 61.7115 62.9922 62.5755ZM78.5234 54.7275H79.5314V63.7275H78.3434V56.7975L72.9794 63.7275H71.9714V54.7275H73.1594V61.6575L78.5234 54.7275ZM88.5237 54.7275V55.8795H85.3377V63.7275H84.1497V55.8795H80.9637V54.7275H88.5237ZM93.6254 58.1475C95.2634 58.1475 96.6314 59.2815 96.6314 60.9375C96.6314 62.5935 95.2634 63.7275 93.6254 63.7275H89.9714V54.7275H91.1594V58.1475H93.6254ZM93.6254 62.5755C94.5974 62.5755 95.4434 61.9635 95.4434 60.9375C95.4434 59.9115 94.5974 59.2995 93.6254 59.2995H91.1594V62.5755H93.6254ZM36.1222 75.7275V84.7275H34.9342V76.8795H29.7502V84.7275H28.5622V75.7275H36.1222ZM43.4585 75.5115C45.9965 75.5115 48.1025 77.5635 48.1025 80.2275C48.1025 82.8915 45.9965 84.9435 43.4585 84.9435C41.8565 84.9435 40.5785 84.1695 39.8225 82.9635V88.3275H38.6345V75.7275H39.8225V77.4915C40.5785 76.2855 41.8565 75.5115 43.4585 75.5115ZM43.3685 83.7915C45.3665 83.7915 46.9145 82.2255 46.9145 80.2275C46.9145 78.2295 45.3665 76.6635 43.3685 76.6635C41.3705 76.6635 39.8225 78.2295 39.8225 80.2275C39.8225 82.2255 41.3705 83.7915 43.3685 83.7915ZM54.2718 84.9435C51.6438 84.9435 49.5378 82.8915 49.5378 80.2275C49.5378 77.5635 51.6438 75.5115 54.2718 75.5115C56.8998 75.5115 59.0058 77.5635 59.0058 80.2275C59.0058 82.8915 56.8998 84.9435 54.2718 84.9435ZM54.2718 83.7915C56.2698 83.7915 57.8178 82.2255 57.8178 80.2275C57.8178 78.2295 56.2698 76.6635 54.2718 76.6635C52.2738 76.6635 50.7258 78.2295 50.7258 80.2275C50.7258 82.2255 52.2738 83.7915 54.2718 83.7915ZM65.1519 75.5115C67.9059 75.5115 69.6159 77.7975 69.6159 80.2635C69.6159 80.4435 69.5979 80.6415 69.5799 80.8215H61.6779C61.9299 82.6575 63.3519 83.7915 65.2599 83.7915C66.6819 83.7915 67.6719 83.1255 68.1579 82.2615L69.2019 82.8735C68.4459 84.0975 67.0599 84.9435 65.2419 84.9435C62.3979 84.9435 60.4539 82.9455 60.4539 80.2275C60.4539 77.5815 62.3619 75.5115 65.1519 75.5115ZM65.1519 76.6635C63.2619 76.6635 61.9119 77.9055 61.6779 79.6695H68.3919C68.1399 77.6895 66.6999 76.6635 65.1519 76.6635ZM78.7776 84.7275H77.1936L72.6936 80.3895V84.7275H71.5056V75.7275H72.6936V79.7055L76.9776 75.7275H78.5976L73.9536 80.0475L78.7776 84.7275ZM86.8801 75.7275V76.8795H83.6941V84.7275H82.5061V76.8795H79.3201V75.7275H86.8801Z" fill="white"/>
<path d="M66.0754 24.722C66.0755 24.1697 65.6278 23.722 65.0755 23.7219L56.0755 23.7211C55.5232 23.7211 55.0755 24.1688 55.0754 24.721C55.0754 25.2733 55.5231 25.7211 56.0753 25.7211L64.0753 25.7218L64.0746 33.7218C64.0746 34.2741 64.5223 34.7219 65.0745 34.7219C65.6268 34.722 66.0746 34.2743 66.0746 33.722L66.0754 24.722ZM50.0016 41.2072L65.7825 25.4291L64.3684 24.0148L48.5875 39.7928L50.0016 41.2072Z" fill="white"/>
</svg>
