<svg width="72" height="71" viewBox="0 0 72 71" fill="none" xmlns="http://www.w3.org/2000/svg">
<g clip-path="url(#clip0_2_527)">
<path d="M24.7167 28.1698C23.2713 27.6627 22.2008 27.439 21.4661 27.4689C20.5589 27.5047 19.7062 28.0475 18.9261 29.0794C17.9766 30.3321 17.4232 31.9784 17.4625 33.8902C17.523 36.8369 19.0047 40.0163 20.1356 42.7244C21.6808 46.4346 23.1322 50.4103 23.4799 54.3979C23.7853 57.9143 23.997 61.8154 22.216 65.0813C21.079 67.1661 19.5248 67.4703 17.269 66.2355C15.1886 65.0992 13.6344 63.8555 12.4067 62.7609C11.684 61.7886 10.5078 60.1572 9.00796 57.8129C8.18548 56.5275 7.07877 54.7797 5.83598 52.5339C7.6805 53.7328 8.90212 54.4397 9.47363 54.6306C11.7082 55.3792 12.44 54.2846 11.7717 51.2723C11.2849 49.0861 10.4352 46.9625 9.14403 45.0388C7.19669 42.5693 5.2796 40.067 3.43507 37.5229C0.151211 33.3683 -0.882933 27.9312 0.792259 22.9474C2.5249 17.7936 6.52238 13.3497 10.2991 9.59768C13.2564 6.65991 16.3195 3.56705 20.1265 1.74772C22.0315 0.838053 24.13 0.480152 26.661 0.951389C25.3184 10.0003 24.8013 19.0284 24.7167 28.1698Z" fill="#AA7AD2"/>
<path d="M63.101 10.0451C69.5054 16.9854 72.0152 25.8912 71.997 34.8894C71.9789 44.3708 67.9663 53.1334 62.0033 60.706C59.6296 62.6983 58.3264 63.5901 55.5445 65.1052C58.2871 59.5756 59.8262 53.7537 60.9571 47.7321C56.7117 55.0929 52.2183 62.3016 47.7793 69.5491C46.4488 62.6625 43.4281 56.1189 40.6008 49.7393C40.3014 56.4738 39.9053 63.1934 39.3761 69.913C36.6214 70.1695 33.6551 70.1217 30.9125 69.7668C29.5397 58.1142 28.8291 46.4078 28.5055 34.6836C28.188 23.2486 28.2243 11.8137 29.1073 0.405615C33.7065 -0.134219 37.9066 -0.140184 42.5058 0.38772C43.7244 3.6983 44.9883 7.02977 46.2704 10.2837C47.9275 14.4831 49.8536 18.6615 51.7103 22.8221C52.8442 19.1328 53.6818 15.2675 54.0507 11.429C54.217 9.50227 54.2473 6.77924 53.6485 3.81164C57.0806 5.42816 60.2737 7.52785 63.0979 10.0451H63.101Z" fill="#AA7AD2"/>
</g>
<defs>
<clipPath id="clip0_2_527">
<rect width="72" height="70.08" fill="white"/>
</clipPath>
</defs>
</svg>
