<svg width="26" height="18" viewBox="0 0 26 18" fill="none" xmlns="http://www.w3.org/2000/svg">
<path d="M22.9928 17.248H3.2895C2.64906 17.2473 2.03507 16.9926 1.58223 16.5397C1.12939 16.0868 0.874695 15.4728 0.874023 14.8323V2.66376C0.874695 2.02332 1.12939 1.4093 1.58223 0.956417C2.03507 0.503535 2.64906 0.24878 3.2895 0.248047H22.9928C23.6333 0.24878 24.2472 0.503535 24.7001 0.956417C25.1529 1.4093 25.4076 2.02332 25.4083 2.66376V14.8323C25.4076 15.4728 25.1529 16.0868 24.7001 16.5397C24.2472 16.9926 23.6333 17.2473 22.9928 17.248ZM3.2895 1.17131C2.89383 1.17174 2.5145 1.32912 2.23474 1.60892C1.95498 1.88873 1.79765 2.26809 1.79728 2.66376V14.8323C1.79765 15.228 1.95498 15.6074 2.23474 15.8872C2.5145 16.167 2.89383 16.3244 3.2895 16.3248H22.9928C23.3885 16.3244 23.7678 16.167 24.0476 15.8872C24.3273 15.6074 24.4847 15.228 24.485 14.8323V2.66376C24.4847 2.26809 24.3273 1.88873 24.0476 1.60892C23.7678 1.32912 23.3885 1.17174 22.9928 1.17131H3.2895Z" fill="#AA7AD2"/>
<path d="M13.1411 11.4645C13.0286 11.4646 12.9199 11.4235 12.8355 11.3491L1.71021 1.52838L2.32117 0.835938L13.1411 10.388L23.9615 0.837092L24.5724 1.52954L13.4472 11.3503C13.3625 11.4245 13.2537 11.4651 13.1411 11.4645Z" fill="#AA7AD2"/>
<path d="M1.45923 15.7991L8.93302 7.28319L9.62755 7.89254L2.15375 16.4082L1.45923 15.7991ZM16.6785 7.88377L17.3728 7.27441L24.8468 15.7899L24.1525 16.3992L16.6785 7.88377Z" fill="#AA7AD2"/>
</svg>
