<svg width="36" height="37" viewBox="0 0 36 37" fill="none" xmlns="http://www.w3.org/2000/svg">
<path d="M9 7.70002C9 6.70595 9.80592 5.90002 10.8 5.90002L30.4734 5.90002C31.4675 5.90002 32.2734 6.70595 32.2734 7.70002C32.2734 8.6941 31.4675 9.50002 30.4734 9.50002H10.8C9.80592 9.50002 9 8.69403 9 7.70002ZM34.2 16.7H1.8C0.805922 16.7 0 17.506 0 18.5C0 19.4941 0.805922 20.3 1.8 20.3H34.2C35.1941 20.3 36 19.4941 36 18.5C36 17.506 35.1941 16.7 34.2 16.7ZM23.9695 27.5H5.30859C4.31459 27.5 3.50859 28.3059 3.50859 29.3C3.50859 30.294 4.31459 31.1 5.30859 31.1H23.9695C24.9636 31.1 25.7695 30.294 25.7695 29.3C25.7695 28.3059 24.9636 27.5 23.9695 27.5Z" fill="#71727A"/>
</svg>
