<svg width="19" height="19" viewBox="0 0 19 19" fill="none" xmlns="http://www.w3.org/2000/svg">
<path d="M14.0588 12.525L14.0588 12.525L14.0633 12.5265C15.1404 12.8824 16.2755 13.063 17.4297 13.063C17.9499 13.063 18.374 13.4871 18.3741 14.0073V17.3037C18.3741 17.824 17.95 18.248 17.4297 18.248C8.57694 18.248 1.37402 11.0452 1.37402 2.19241C1.37402 1.67214 1.79812 1.24805 2.31838 1.24805H5.62401C6.14427 1.24805 6.56835 1.67213 6.56832 2.19242V2.19245C6.56832 3.34609 6.74904 4.47927 7.10544 5.56016C7.21412 5.91022 7.12189 6.27636 6.8703 6.52762L6.8453 6.55259L6.82405 6.58082L5.34116 8.55201L5.15004 8.80607L5.29903 9.08691C6.58194 11.5052 8.09997 13.0222 10.5341 14.3215L10.8158 14.4719L11.0708 14.2795L13.0947 12.7516L13.1251 12.7287L13.1517 12.7014C13.2226 12.6285 13.359 12.5489 13.5427 12.5077C13.723 12.4673 13.9079 12.4735 14.0588 12.525Z" fill="#FDFDFD" stroke="#977AD2"/>
</svg>
